<svg width="39" height="39" viewBox="0 0 39 39" fill="none" xmlns="http://www.w3.org/2000/svg">
<g clip-path="url(#clip0_302_576)">
<path d="M19.5 7.3125C19.8232 7.3125 20.1332 7.4409 20.3618 7.66946C20.5903 7.89802 20.7188 8.20802 20.7188 8.53125V13.4062C20.7188 13.7295 20.5903 14.0395 20.3618 14.268C20.1332 14.4966 19.8232 14.625 19.5 14.625C19.1768 14.625 18.8668 14.4966 18.6382 14.268C18.4097 14.0395 18.2812 13.7295 18.2812 13.4062V8.53125C18.2812 8.20802 18.4097 7.89802 18.6382 7.66946C18.8668 7.4409 19.1768 7.3125 19.5 7.3125ZM29.25 26.8125C29.25 29.3984 28.2228 31.8783 26.3943 33.7068C24.5658 35.5353 22.0859 36.5625 19.5 36.5625C16.9141 36.5625 14.4342 35.5353 12.6057 33.7068C10.7772 31.8783 9.75 29.3984 9.75 26.8125V12.1875C9.75 9.60164 10.7772 7.12169 12.6057 5.29321C14.4342 3.46473 16.9141 2.4375 19.5 2.4375C22.0859 2.4375 24.5658 3.46473 26.3943 5.29321C28.2228 7.12169 29.25 9.60164 29.25 12.1875V26.8125ZM19.5 0C16.2677 0 13.1677 1.28404 10.8821 3.56964C8.59654 5.85524 7.3125 8.95517 7.3125 12.1875V26.8125C7.3125 30.0448 8.59654 33.1448 10.8821 35.4304C13.1677 37.716 16.2677 39 19.5 39C22.7323 39 25.8323 37.716 28.1179 35.4304C30.4035 33.1448 31.6875 30.0448 31.6875 26.8125V12.1875C31.6875 8.95517 30.4035 5.85524 28.1179 3.56964C25.8323 1.28404 22.7323 0 19.5 0Z" fill="#0F172A"/>
</g>
<defs>
<clipPath id="clip0_302_576">
<rect width="39" height="39" fill="white"/>
</clipPath>
</defs>
</svg>
