<?xml version="1.0" encoding="utf-8"?>
<!-- Generator: Adobe Illustrator 16.0.3, SVG Export Plug-In . SVG Version: 6.00 Build 0)  -->
<!DOCTYPE svg PUBLIC "-//W3C//DTD SVG 1.1//EN" "http://www.w3.org/Graphics/SVG/1.1/DTD/svg11.dtd">
<svg version="1.1" id="Capa_1" xmlns="http://www.w3.org/2000/svg" xmlns:xlink="http://www.w3.org/1999/xlink" x="0px" y="0px"
	 width="612px" height="612px" viewBox="0 31.5 612 612" enable-background="new 0 31.5 612 612" xml:space="preserve">
<g id="Capa_1_1_" display="none">
</g>
<g id="Capa_2">
	<g>
		<g>
			<g>
				<path fill="#1D213D" d="M163.987,204.851l0.009,51.81l49.133,0.01v-49.963l10.142-0.03l-0.027-32.281l46.867-0.124v32.435
					h57.563l2.371,0.956l0.153,48.94l116.838,0.058l0.105-51.638c0.822-2.6,2.649-4.253,4.476-4.178
					c1.088,0.05,1.911,0.697,2.342,1.118c13.505,19.357,27.013,38.715,40.519,58.071c0.25,0.259,1.903,2.104,1.816,5.029
					c-0.075,2.416-1.289,3.958-1.586,4.311c-0.086,12.455-0.174,24.912-0.248,37.366l106.038-0.295l0.152,19.929
					c-10.793,14.34-19.826,26.822-26.785,36.621c-28.792,40.528-40.521,60.909-48.129,87.597c-0.181,0.623-0.315,1.128-0.401,1.434
					c-151.348-0.478-302.684-0.956-454.032-1.434c-5.104-7.541-11.212-18.161-16.24-31.954c-6.615-18.134-8.718-34.52-9.387-45.713
					c-1.281-19.824-2.552-39.649-3.833-59.475l3.431-6.998l69.608,0.183l-0.095-37.07c-0.431-0.306-1.396-1.088-1.884-2.542
					c-0.64-1.932-0.181-4.253,1.157-5.984c14.425-19.863,28.858-39.726,43.283-59.601c0.516-0.257,1.194-0.478,1.969-0.448
					C162.189,201.113,163.834,204.535,163.987,204.851z"/>
				<polygon fill="#FCFDFF" points="128.695,256.67 153.711,256.67 153.749,223.702 				"/>
				<polygon fill="#FCFDFF" points="481.46,257.98 456.433,257.99 456.406,224.658 				"/>
				<polygon fill="#FCFDFF" points="457.313,225.078 457.016,256.736 479.766,256.736 				"/>
				<rect x="125.722" y="271.391" fill="#FCFDFF" width="10.238" height="35.119"/>
				<rect x="474.117" y="271.515" fill="#FCFDFF" width="10.237" height="35.12"/>
				<rect x="234.34" y="186.966" fill="#FCFDFF" width="23.965" height="18.907"/>
				<polygon fill="#FCFDFF" points="210.673,306.702 147.565,306.702 147.565,271.573 179.396,271.573 210.673,271.573 				"/>
				
					<linearGradient id="SVGID_1_" gradientUnits="userSpaceOnUse" x1="677.2471" y1="423.3428" x2="478.5225" y2="423.3427" gradientTransform="matrix(0.4708 0 0 -0.4708 0.2644 463.5843)">
					<stop  offset="0.852" style="stop-color:#FFFFFF"/>
					<stop  offset="0.8617" style="stop-color:#BEC6D2"/>
				</linearGradient>
				<rect x="225.538" y="221.34" fill="url(#SVGID_1_)" width="93.554" height="85.897"/>
				
					<linearGradient id="SVGID_2_" gradientUnits="userSpaceOnUse" x1="682.1084" y1="300.6587" x2="682.1084" y2="132.981" gradientTransform="matrix(0.4708 0 0 -0.4708 0.2644 463.5843)">
					<stop  offset="0.4097" style="stop-color:#8DE7CC"/>
					<stop  offset="0.4587" style="stop-color:#68B2B1"/>
				</linearGradient>
				<path fill="url(#SVGID_2_)" d="M528.604,400.523c-154.032,0.152-308.066,0.305-462.089,0.458
					c-2.275-11.824-4.331-24.844-5.917-38.935c-1.606-14.317-2.495-27.711-2.896-40.003c175.789,0,351.568,0,527.357,0
					c-11.136,12.102-23.143,26.688-35.109,44.065C541.748,378.002,534.684,389.588,528.604,400.523z"/>
				<path fill="#4A7C84" d="M509.983,445.038C367.45,445.02,224.916,445,82.382,444.982c-1.997-4.378-4.015-9.207-5.956-14.483
					c-2.141-5.829-3.89-11.384-5.324-16.546c150.783,0,301.566,0,452.339,0c-2.81,5.324-5.669,11.279-8.422,17.866
					C513.119,436.389,511.445,440.814,509.983,445.038z"/>
				<ellipse fill="#05103F" cx="86.225" cy="377.84" rx="6.357" ry="8.135"/>
				<ellipse fill="#05103F" cx="111.441" cy="378.078" rx="6.357" ry="8.134"/>
				<ellipse fill="#05103F" cx="135.665" cy="377.361" rx="6.356" ry="8.135"/>
				<ellipse fill="#05103F" cx="160.68" cy="377.601" rx="6.355" ry="8.135"/>
				<ellipse fill="#05103F" cx="235.879" cy="246.194" rx="4.924" ry="6.222"/>
				<ellipse fill="#05103F" cx="251.691" cy="246.194" rx="4.923" ry="6.222"/>
				<ellipse fill="#05103F" cx="285.108" cy="246.194" rx="4.923" ry="6.222"/>
				<ellipse fill="#05103F" cx="301.254" cy="246.194" rx="4.923" ry="6.222"/>
				<ellipse fill="#05103F" cx="268.467" cy="246.194" rx="4.923" ry="6.222"/>
				<ellipse fill="#05103F" cx="236.33" cy="268.092" rx="4.923" ry="6.222"/>
				<ellipse fill="#05103F" cx="252.149" cy="268.092" rx="4.923" ry="6.222"/>
				<ellipse fill="#05103F" cx="285.567" cy="268.092" rx="4.923" ry="6.222"/>
				<ellipse fill="#05103F" cx="301.712" cy="268.092" rx="4.923" ry="6.222"/>
				<ellipse fill="#05103F" cx="268.916" cy="268.092" rx="4.923" ry="6.222"/>
				<ellipse fill="#05103F" cx="236.176" cy="290.892" rx="4.924" ry="6.224"/>
				<ellipse fill="#05103F" cx="251.997" cy="290.892" rx="4.923" ry="6.224"/>
				<ellipse fill="#05103F" cx="285.415" cy="290.892" rx="4.923" ry="6.224"/>
				<ellipse fill="#05103F" cx="301.56" cy="290.892" rx="4.922" ry="6.224"/>
				<ellipse fill="#05103F" cx="268.771" cy="290.892" rx="4.924" ry="6.224"/>
				<path fill="#BEC6D2" d="M210.673,306.702h-63.108v-35.129c10.295,9.654,20.581,19.308,30.875,28.962
					c10.744-9.654,21.488-19.308,32.232-28.962V306.702z"/>
				<polygon fill="#FCFDFF" points="392.942,306.338 330.991,306.338 330.991,271.218 362.239,271.218 392.942,271.218 				"/>
				<path fill="#BEC6D2" d="M392.942,306.338h-61.951v-35.12c10.104,9.655,20.209,19.31,30.312,28.965
					c10.543-9.655,21.097-19.31,31.64-28.965V306.338z"/>
				<polygon fill="#FCFDFF" points="463.574,306.578 406.765,306.578 406.765,271.458 435.423,271.458 463.574,271.458 				"/>
				<path fill="#BEC6D2" d="M463.574,306.578h-56.81v-35.12c9.263,9.655,18.524,19.31,27.789,28.963
					c9.673-9.653,19.348-19.308,29.011-28.963v35.12H463.574z"/>
			</g>
		</g>
		
			<linearGradient id="SVGID_3_" gradientUnits="userSpaceOnUse" x1="18.5522" y1="-8.3428" x2="1240.1592" y2="-8.3428" gradientTransform="matrix(0.4708 0 0 -0.4708 0.2644 463.5843)">
			<stop  offset="0" style="stop-color:#8DE7CC;stop-opacity:0"/>
			<stop  offset="0.0626" style="stop-color:#84DBC6;stop-opacity:0.1365"/>
			<stop  offset="0.2042" style="stop-color:#75C4BA;stop-opacity:0.4451"/>
			<stop  offset="0.3389" style="stop-color:#6BB7B3;stop-opacity:0.7389"/>
			<stop  offset="0.4587" style="stop-color:#68B2B1"/>
			<stop  offset="0.9735" style="stop-color:#68B2B1;stop-opacity:0.0489"/>
			<stop  offset="1" style="stop-color:#68B2B1;stop-opacity:0"/>
		</linearGradient>
		<path fill="url(#SVGID_3_)" d="M8.998,437.869l1.72,40.674l78.184,20.333l58.424-2.582l59.716-12.885
			c0,0,59.714,13.746,62.725,14.176s70.88-0.86,70.88-0.86l46.829-13.746l68.022,15.036c0,0,69.025-2.582,72.742-2.582
			c3.718,0,55.279-14.032,55.279-14.032l0.573-45.252l-45.824,14.176l-41.236,7.732l-76.903-14.175l-35.655-7.733l-46.829,16.537
			c0,0-24.27,5.152-25.78,5.152c-1.501,0-51.771-1.499-52.192-2.15c-0.429-0.64-26.631-9.885-26.631-9.885l-28.781-7.732
			l-36.955,5.382l-36.735,13.745l-49.688-6.155L27.61,437.869H8.998L8.998,437.869z"/>
		<path fill="#05103F" d="M481.487,461.337c-28.236-0.708-53.988-4.244-77.073-12.034c-10.18-3.432-17.828-4.025-28.888-0.488
			c-51.589,16.528-104.278,16.508-156.365,0.669c-11.461-3.488-19.615-3.298-31.172,0.125
			c-56.674,16.806-112.384,15.305-165.838-4.599c-7.819-2.914-19.443-6.414-11.012-12.589c7.514-5.507,16.308-0.804,23.753,1.894
			c52.039,18.88,103.964,19.194,154.989-0.861c11.605-4.561,19.559-3.479,30.293,0.794c46.81,18.649,103.706,18.938,151.003,0.583
			c12.446-4.826,21.154-5.335,34.316-0.421c50.986,19.052,100.217,18.649,153.22-0.23c7.533-2.684,15.954-7.272,23.468-1.423
			c7.266,5.648-3.067,8.831-10.208,11.796C544.987,455.764,513.932,460.505,481.487,461.337z"/>
		<path fill="#05103F" d="M483.544,505.079c-30.533-0.804-57.191-4.129-81.004-12.178c-9.788-3.307-17.389-3.069-27.233-0.04
			c-52.794,16.212-106.152,16.386-158.486-0.391c-11.71-3.757-19.263-1.799-29.041,1.137
			c-53.741,16.137-122.402,14.07-165.962-4.962c-7.122-3.104-19.586-6.412-10.162-12.675c8.068-5.362,16.375-0.41,23.735,2.295
			c50.271,18.496,100.885,18.868,151.194,0.324c12.608-4.645,21.441-4.903,34.47-0.047c49.715,18.544,101.544,18.438,151.327-0.287
			c13.258-4.99,22.235-4.253,34.499,0.45c47.432,18.181,98.59,18.219,147.236,0.783c1.271-0.459,2.465-0.974,3.756-1.414
			c7.57-2.524,16.433-7.391,23.86-1.884c8.364,6.204-3.987,9.482-11.261,12.646C547.828,498.683,510.92,505.193,483.544,505.079z"/>
	</g>
</g>
</svg>
