<?xml version="1.0" encoding="utf-8"?>
<!-- Generator: Adobe Illustrator 23.0.5, SVG Export Plug-In . SVG Version: 6.00 Build 0)  -->
<svg version="1.1" xmlns="http://www.w3.org/2000/svg" xmlns:xlink="http://www.w3.org/1999/xlink" x="0px" y="0px"
	 viewBox="0 0 1300 1300" style="enable-background:new 0 0 1300 1300;" xml:space="preserve">
<style type="text/css">
	.st0{display:none;}
	.st1{fill:none;stroke:#000000;stroke-width:16;stroke-miterlimit:10;}
	.st2{fill:#FFBE1D;}
	.st3{fill:#05103F;}
	.st4{opacity:0.25;fill:#8CE2F9;}
	.st5{fill:#1D213D;}
	.st6{fill:#FCFDFF;}
	.st7{fill:url(#SVGID_1_);}
	.st8{fill:url(#SVGID_2_);}
	.st9{fill:#4A7C84;}
	.st10{fill:#BEC6D2;}
	.st11{fill:url(#SVGID_3_);}
	.st12{fill:none;}
</style>
<g id="Capa_1" class="st0">
</g>
<g id="Capa_2">
	<g>
		<path class="st2" d="M246.46,1087.25c-19.07,0-36.78-2.97-53.14-8.91c-16.36-5.93-30.54-14.39-42.55-25.38
			c-12.01-10.98-21.36-23.86-28.07-38.65c-6.71-14.79-10.06-31.03-10.06-48.73c0-17.7,3.35-33.95,10.06-48.73
			c6.71-14.79,16.12-27.67,28.25-38.65c12.12-10.98,26.36-19.44,42.72-25.38c16.36-5.93,34.07-8.91,53.14-8.91
			c21.42,0,40.84,3.53,58.26,10.59c17.42,7.06,32.01,17.42,43.78,31.09l-37.07,32.27c-8.24-9.19-17.6-16.13-28.07-20.84
			c-10.48-4.71-21.84-7.06-34.07-7.06c-11.54,0-22.13,1.85-31.78,5.55c-9.65,3.7-18.01,8.91-25.07,15.63
			c-7.06,6.72-12.54,14.68-16.42,23.86c-3.88,9.19-5.83,19.38-5.83,30.58c0,11.21,1.94,21.4,5.83,30.58
			c3.88,9.19,9.36,17.14,16.42,23.86c7.06,6.72,15.41,11.93,25.07,15.63c9.65,3.7,20.24,5.55,31.78,5.55
			c12.24,0,23.6-2.41,34.07-7.23c10.47-4.82,19.83-11.82,28.07-21.01l37.07,32.27c-11.77,13.67-26.37,24.09-43.78,31.26
			C287.65,1083.67,268.11,1087.25,246.46,1087.25z"/>
		<path class="st3" d="M391.93,1083.22V847.96h112.28c26.83,0,50.49,4.87,70.97,14.62c20.48,9.75,36.48,23.42,48.02,41
			c11.53,17.59,17.3,38.26,17.3,62.01c0,23.75-5.77,44.42-17.3,62.01c-11.54,17.59-27.54,31.26-48.02,41
			c-20.48,9.75-44.14,14.62-70.97,14.62H391.93z M449.48,1038.86h51.9c16.47,0,30.77-2.97,42.9-8.91
			c12.12-5.93,21.54-14.45,28.25-25.54c6.71-11.09,10.06-24.03,10.06-38.82c0-15.01-3.35-28.01-10.06-38.99
			c-6.71-10.98-16.13-19.44-28.25-25.38c-12.13-5.93-26.43-8.91-42.9-8.91h-51.9V1038.86z"/>
		<path class="st3" d="M745.72,1039.53h134.53v43.69H688.88V847.96h186.79v43.69H745.72V1039.53z M741.49,942.4h118.99v42.68H741.49
			V942.4z"/>
		<path class="st3" d="M900.73,1083.22l105.93-139.48v39.66L905.32,847.96h64.62l70.27,94.11l-27.54,0.67l69.91-94.78h61.79
			l-100.98,133.09v-38.99l106.99,141.16h-66.03l-72.74-99.82h26.13l-71.68,99.82H900.73z"/>
	</g>
	<g>
		<g>
			<path class="st4" d="M241.09,315.25c0.06-38.88,36.11-69.08,74.54-61.72c8.77,1.68,12.57,0.02,16.62-8.34
				c14.33-29.56,38.97-45.14,71.63-45.17c32.49-0.03,56.37,16.13,71.01,44.98c3.5,6.9,6.79,8.5,14.43,7.7
				c21.68-2.26,39.98,5.62,54.25,22.12c3.21,3.71,5.89,5.57,11.28,4.9c15.29-1.88,27.71,4.24,35.89,17.07
				c8.16,12.81,8.72,26.57,0.36,39.7c-8.42,13.22-20.87,19.47-36.46,17.39c-5.82-0.78-9.02,0.71-12.8,4.85
				c-21.65,23.71-57.68,27.38-83.56,8.5c-5.2-3.8-7.41-4.28-11.02,2.09c-22.14,39.01-76.41,42.96-104.41,7.55
				c-4.32-5.46-7.23-5.39-12.98-2.94C287.48,391.95,241.01,361.1,241.09,315.25z"/>
			<path class="st4" d="M130.77,572.48c-0.11-14.37,9.42-26.36,24.12-29.4c4.89-1.01,7.08-2.38,7.57-7.99
				c1.58-18.09,22.44-27.74,38.81-18.01c4.75,2.82,6.51,1.97,9.44-2.29c14.23-20.65,34.27-29.89,59.04-26.88
				c23.17,2.82,39.8,15.61,49.14,37.1c2.05,4.71,4.57,7.16,9.61,8c8.81,1.48,16.1,6.07,21.87,12.82c2.31,2.71,4.48,3.72,8.26,3.35
				c13.98-1.36,25.46,9.68,25.44,23.9c-0.03,14.06-11.84,25.19-25.71,23.54c-4.26-0.51-6.73,0.75-9.52,3.55
				c-11.11,11.11-24.45,14.97-39.68,10.79c-4.1-1.12-6.2,0.05-8.65,3.18c-21.15,26.91-57.26,26.75-77.94-0.33
				c-2.34-3.07-4.23-3.84-8.04-2.51c-14.63,5.1-28.49,3.4-40.89-6.26c-3.27-2.55-6.39-3.43-10.61-3.11
				C145.32,603.27,130.91,589.89,130.77,572.48z"/>
			<path class="st4" d="M1093.13,540.47c-8.39-3.73-13.94,2.44-20.42,9.87c-28.39,32.53-73.86,37.66-109.29,11.91
				c-9.77-7.1-13.53-5.68-19.68,4.88c-32.45,55.68-100.53,60.25-139.42,9.53c-5.98-7.79-9.99-9.65-19.23-5.67
				c-31.18,13.4-61.21,9.64-88.04-13.38c-6.09-5.23-11.44-6.58-18.86-5.28c-27.34,4.82-49.65-5.23-64.89-30.89
				c-14.97-25.2-14.7-51.76-0.15-76.9c14.56-25.16,36.16-36.32,63.24-31.71c8.77,1.49,15.44-0.19,22.54-6.31
				c21.41-18.45,45.91-23.57,72.23-16.94c7.52,1.89,11.31,0.57,14.79-8.03c19.12-47.26,52.93-73.2,99.44-73.64
				c45.4-0.43,79.13,24.24,99.06,69.72c3.93,8.96,7.83,11.16,16.62,10.09c30.93-3.76,57.22,7.39,77.07,34.16
				c5.21,7.03,10.67,6.12,17.17,5.8c24.92-1.21,48.23,17.8,53.15,42.95c5.72,29.26-6.52,55.54-30.87,66.56
				C1110.19,540.55,1102.52,541.08,1093.13,540.47z"/>
			<g>
				<path class="st3" d="M959.12,798.27c-2.9,0-5.61-1.81-6.62-4.7l-52.47-150.39c-0.62-1.78-0.5-3.74,0.34-5.43
					c0.84-1.69,2.33-2.97,4.13-3.55c35.39-11.33,71.96-19.89,108.71-25.43c42.57-6.42,86.01-8.9,129.09-7.36
					c3.87,0.14,6.89,3.38,6.75,7.25c-0.14,3.87-3.33,6.89-7.25,6.75c-42.22-1.5-84.79,0.93-126.51,7.21
					c-33.64,5.07-67.13,12.73-99.67,22.77l50.08,143.57c1.28,3.65-0.65,7.65-4.31,8.92C960.67,798.14,959.89,798.27,959.12,798.27z"
					/>
			</g>
			<g>
				<path class="st3" d="M953.74,311.42c-0.39,2.05,0.07,3.93,1.26,5.68c3.58,5.27,8.3,9.35,14.2,12.12
					c4.11,1.94,8.48,3.03,13.07,3.35c2.82,0.19,5.6,0.03,8.37-0.43c0.36-0.06,0.6,0.02,0.81,0.33c0.51,0.75,1.12,1.43,1.85,1.99
					c0.7,0.53,2.38,1.67,4.64,2.11c0.06,0,0.12,0,0.18,0.01c1.79,0.29,3.53,0.1,5.21-0.54c3.15-1.3,5.59-4.26,6.27-7.95
					c0.11-1.25-0.04-2.53-0.5-3.86c-0.23-0.65-0.15-1.02,0.38-1.52c2.97-2.82,5.32-6.07,7.09-9.7c2.59-5.31,3.69-10.92,3.4-16.76
					c-0.27-5.31-1.77-10.32-4.47-14.98c-0.48-0.84-0.85-1.74-1.54-2.47c-1.44-1.54-3.33-2.09-5.39-2.27
					c-3.48-0.31-6.81,0.4-10.11,1.32c-3.89,1.09-7.62,2.59-11.24,4.32c-0.53,0.25-0.97,0.27-1.5,0.04c-1.7-0.73-3.41-1.44-5.13-2.12
					c-0.47-0.19-0.56-0.5-0.59-0.91c-0.28-2.98-2.34-5.28-5.39-6c-3.16-0.75-6.61,0.87-7.93,3.72c-1.44,3.11-0.39,6.56,2.6,8.41
					c0.48,0.3,0.66,0.59,0.64,1.13c-0.06,1.82-0.08,3.64-0.09,5.46c0,0.49-0.17,0.82-0.59,1.14c-4.39,3.32-8.52,6.89-11.85,11.23
					C955.71,306.42,954.26,308.71,953.74,311.42z M975.89,279.72c-0.03,1.48-1.35,2.66-2.95,2.64c-1.49-0.02-2.76-1.28-2.74-2.71
					c0.03-1.49,1.29-2.69,2.83-2.68C974.6,276.99,975.92,278.26,975.89,279.72z M996.02,330.8c0.16-0.05,0.32-0.1,0.48-0.16
					c2.91-1.01,5.64-2.36,8.17-4.05c0.18-0.12,0.35-0.38,0.6-0.25c0.23,0.12,0.18,0.39,0.2,0.62c0.18,3.17-2.56,5.82-5.94,5.76
					c-1.39-0.03-2.57-0.53-3.62-1.38C995.6,331.08,995.63,330.92,996.02,330.8z M962.14,319.19c0.07-0.21,0.34-0.13,0.51-0.14
					c2.26-0.05,4.46-0.48,6.63-1.03c3.92-0.99,7.66-2.46,11.32-4.12c4.32-1.96,8.45-4.23,12.42-6.75c3.53-2.24,6.92-4.66,10.11-7.32
					c2.87-2.4,5.55-4.97,7.9-7.84c1.06-1.31,2-2.69,2.84-4.19c0.26,0.16,0.27,0.35,0.33,0.52c1.67,4.81,2.1,9.73,1.22,14.72
					c-1.63,9.24-6.57,16.45-14.93,21.37c-5.99,3.53-12.57,4.83-19.57,4.01c-7.24-0.85-13.38-3.84-18.49-8.8
					C962.3,319.51,962.07,319.39,962.14,319.19z M957.85,312.04c0.44-1.95,1.54-3.58,2.72-5.16c2.05-2.74,4.51-5.12,7.1-7.39
					c0.63-0.56,1.3-1.08,1.95-1.62c0.06,0.02,0.11,0.04,0.17,0.07c-0.05,2.37-0.1,4.74-0.13,7.11c-0.01,1.04,0.77,1.85,1.82,1.97
					c1.05,0.12,1.94-0.46,2.22-1.46c0.08-0.29,0.11-0.61,0.11-0.91c0.02-3.01,0.14-6.01,0.1-9.02c-0.03-2.84,0.1-5.69,0.12-8.53
					c0-0.62,0.24-0.86,0.84-0.98c1.34-0.28,2.44-0.98,3.34-1.95c0.35-0.38,0.64-0.49,1.15-0.27c2.21,0.94,4.44,1.83,6.66,2.75
					c3.5,1.44,7,2.89,10.5,4.33c0.94,0.39,1.88,0.21,2.47-0.43c0.93-1,0.66-2.5-0.63-3.11c-1.05-0.5-2.16-0.91-3.24-1.35
					c-1.11-0.46-2.22-0.93-3.46-1.44c0.73-0.45,1.39-0.65,2.02-0.9c3.95-1.54,7.97-2.86,12.26-3.23c1.24-0.11,2.48-0.13,3.69,0.24
					c1.21,0.38,1.66,1.02,1.58,2.2c-0.07,1.09-0.53,2.06-1.05,3c-1.64,2.98-3.93,5.48-6.38,7.86c-2.3,2.23-4.79,4.25-7.39,6.16
					c-5.21,3.81-10.73,7.15-16.63,9.89c-4.72,2.2-9.58,4.07-14.79,4.92c-1.74,0.28-3.49,0.44-5.23,0.08
					C958.08,314.52,957.5,313.62,957.85,312.04z"/>
				<path class="st3" d="M952.2,271.81c3.1-7.42,8.8-11.86,16.95-13.48c0.6-0.12,1.22-0.2,1.83-0.31c1.8,0.03,3.6,0.07,5.39,0.1
					c0.1,0.03,0.2,0.07,0.31,0.09c2.43,0.35,4.74,1.07,6.94,2.13c3.48,1.68,6.3,4.07,8.46,7.16c0.74,1.05,0.55,2.25-0.41,2.88
					c-0.99,0.66-2.16,0.43-2.98-0.59c-0.38-0.47-0.73-0.96-1.13-1.41c-4.3-4.85-9.8-6.93-16.37-6.32
					c-4.57,0.42-8.41,2.36-11.52,5.58c-3.14,3.25-4.68,7.15-4.71,11.55c-0.03,3.32,0.92,6.42,2.83,9.23
					c0.74,1.09,0.52,2.32-0.48,2.92c-1.05,0.64-2.3,0.33-3.04-0.79c-0.73-1.09-1.35-2.23-1.86-3.43c-0.76-1.79-1.2-3.67-1.53-5.56
					c0.03-1.8,0.07-3.6,0.1-5.4C951.32,274.7,951.61,273.22,952.2,271.81z"/>
				<path class="st3" d="M963.49,287.7c-1.03,0.64-2.29,0.35-3-0.71c-1.58-2.36-2.35-4.94-2.3-7.73c0.01-2.48,0.69-4.8,2.03-6.89
					c3.31-5.17,9.3-7.74,15.72-6.63c4.08,0.7,7.34,2.74,9.7,6.02c0.7,0.98,0.48,2.27-0.43,2.85c-1.03,0.66-2.29,0.39-3.04-0.63
					c-0.37-0.5-0.75-1-1.21-1.43c-2.39-2.22-5.25-3.19-8.58-3.08c-4.15,0.14-8.37,3.2-9.55,6.99c-0.93,2.97-0.55,5.78,1.17,8.42
					C964.67,285.91,964.43,287.12,963.49,287.7z"/>
				<path class="st3" d="M1006.13,307.13c0.53-1.25,1.63-1.8,2.79-1.36c1.17,0.44,1.63,1.56,1.1,2.79
					c-1.57,3.69-3.88,6.89-6.93,9.59c-0.41,0.36-0.89,0.55-1.46,0.52c-0.87-0.01-1.6-0.48-1.9-1.22c-0.33-0.84-0.14-1.59,0.55-2.23
					C1002.82,312.92,1004.8,310.24,1006.13,307.13z"/>
				<path class="st3" d="M978.54,285.68c0.82,0.05,1.38,0.37,1.78,0.96c0.5,0.74,1,1.47,1.5,2.21c1.77,2.61,3.54,5.21,5.3,7.83
					c0.5,0.74,0.5,1.52-0.01,2.25c-0.8,1.15-2.53,1.16-3.38,0c-0.9-1.22-1.73-2.49-2.58-3.74c-1.45-2.13-2.89-4.25-4.32-6.39
					c-0.48-0.71-0.51-1.46-0.06-2.2C977.2,285.94,977.87,285.73,978.54,285.68z"/>
			</g>
			<g>
				<path class="st3" d="M1113.21,609.76c0.05-2.49-2.61-4.04-3.78-5.84c-1.92-2.95-3.84-5.9-5.72-8.88
					c-8.12-12.87-15.91-26.02-23.35-39.45c-8.71-15.75-16.9-31.87-24.43-48.43c-6.16-13.55-11.9-27.34-17.16-41.4
					c-2.85-7.63-5.59-15.3-8.15-23.06c-3.85-11.65-7.65-23.05-11.28-38.11c-4.61-19.14-6.59-34.32-7.33-40.53
					c-1.71-14.36-2.29-27.02-2.38-37.36c-0.67,4-3.5,7.3-7.31,8.52c-4.04,1.3-8.52,0.06-11.38-3.16c1.68,10.92,2.17,20.04,2.27,26.7
					c0.08,5.56-0.1,9.94-0.26,13.79c-0.24,5.86-0.7,12.91-1.98,24.69c-1.33,12.2-1.68,12.33-3.71,28.89
					c-1.82,14.77-1.62,15.36-3.08,25.9c-1.03,7.41-2.17,14.8-3.48,22.13c-1.27,7.13-2.68,14.21-4.17,21.27
					c-3.7,17.54-8.07,34.8-13.12,51.81c-3.41,11.47-7.06,22.83-10.99,34.05c-4.56,13.04-9.42,25.9-14.59,38.58
					c-1.02,2.49-2.07,4.96-3.08,7.45c-0.13,0.32-0.49,1.03,0.02,1.02c1.01-0.03,2.12,0.37,3.03-0.47
					c7.26-6.73,14.52-13.47,21.6-20.47c9.14-9.04,17.86-18.63,25.85-29.12c1.03-1.35,1.04-1.36,1.92,0.3
					c2.97,5.61,6.33,10.89,9.92,15.95c3.21,4.52,6.66,8.79,10.27,12.88c5.05,5.73,10.39,11.05,16.03,15.93
					c0.78,0.68,1.37,1.16,2.26,0.03c6.57-8.32,12.39-17.32,17.42-27.06c3.98-7.7,7.39-15.74,10.03-24.27
					c0.45-1.46,0.48-1.46,1.54-0.51c7,6.31,14.29,12.1,21.78,17.49c10.87,7.82,22.1,14.85,33.32,21.88c0.46,0.29,1.81,1.28,2.69,0.8
					C1113.17,611.28,1113.2,610.01,1113.21,609.76z M1043.41,494c-2.58-3.36-4.9-6.92-7.14-10.56c-3.05-4.95-5.82-10.11-8.45-15.39
					c-0.67-1.34-0.91-2.7-0.95-4.2c-0.11-3.8-0.6-7.58-0.91-11.37c-0.07-0.85-0.16-1.7-0.14-2.58
					C1031.2,464.87,1037.11,479.54,1043.41,494z M1012.99,417.42c0.87,2.49,2.13,4.76,2.43,7.49c0.52,4.64,1.15,9.26,1.73,13.89
					c0.05,0.41,0.08,0.82-0.07,1.27c-0.76-2.9-1.56-5.79-2.27-8.7c-0.61-2.51-1.11-5.05-1.69-7.57
					C1012.63,421.68,1013,419.57,1012.99,417.42z M1002.16,462.96c0.89,9.42,1.78,18.83,2.67,28.25c-1.51-4.84-2.58-9.84-3.49-14.89
					c-0.17-0.93-0.26-1.89-0.51-2.8C999.8,469.68,1001.44,466.43,1002.16,462.96z M997.33,418.37c1.56,5.07,1.14,10.01,0.89,14.94
					c-0.13,2.62-0.34,5.23-0.51,7.84c-0.02,0.29,0.03,0.61-0.23,0.84c-0.17-1.77-0.38-3.51-0.49-5.26c-0.17-2.67-0.1-5.37-0.45-8.01
					C996.07,425.17,996.92,421.91,997.33,418.37z M991.01,453.15c0.31,3.31,0.61,6.62,0.95,9.93c0.11,1.07,0.26,2.14,0.46,3.2
					c0.38,2.09,0.22,4.03-0.33,6.06c-2.53,9.25-5.81,18.06-9.64,26.59c-0.08,0.18-0.19,0.33-0.41,0.45
					C985.41,484.09,988.46,468.7,991.01,453.15z M980.92,570.74c-5.87,7.83-12.16,15.16-18.76,22.12
					c-4.38,4.62-8.86,9.09-13.42,13.46c-0.3,0.28-0.61,0.53-0.92,0.8c4.34-11.68,8.69-23.22,12.77-34.91
					c4.07-11.66,7.88-23.44,11.45-35.58c0.38,0.66,0.47,1.22,0.58,1.77c1.86,9.4,4.65,18.42,8.32,27.09
					c0.15,0.35,0.22,0.77,0.43,1.06C982.54,568.22,981.92,569.39,980.92,570.74z M986.72,560.07c-2.51-6.34-4.6-12.85-6.18-19.58
					c-1.13-4.79-1.89-9.64-2.64-14.51c-0.17-1.11-0.08-2.05,0.51-3.01c5.67-9.15,10.5-18.93,14.54-29.28
					c0.94-2.42,1.83-4.87,2.82-7.49c0.83,3.11,1.58,6.01,2.36,8.89c2.17,7.98,5.02,15.65,8.41,23.04c0.46,1.01,0.53,1.82,0.17,2.9
					c-3.82,11.71-8.82,22.64-14.78,32.93c-1.24,2.13-2.55,4.2-3.85,6.28C987.34,561.44,987.25,561.42,986.72,560.07z
					 M1011.63,600.36c-6.33-7.28-12.01-15.21-16.97-23.85c-1.04-1.81-1.95-3.71-2.96-5.55c-0.4-0.74-0.36-1.28,0.09-1.95
					c3.61-5.43,6.99-11.05,10.07-16.94c2.26-4.33,4.38-8.77,6.28-13.36c0.27-0.65,0.55-1.28,0.96-2.24
					c2.16,22.88,4.29,45.38,6.44,68.11C1014.04,603.23,1012.85,601.77,1011.63,600.36z M1019.46,489.16
					c-0.02,0.33-0.07,0.67-0.19,0.99c-0.9-9.52-1.8-19.04-2.7-28.57c0.05-0.02,0.1-0.03,0.15-0.05c0.96,2.21,1.99,4.38,2.86,6.63
					c0.55,1.42,0.26,2.99,0.29,4.49C1019.96,478.17,1019.86,483.68,1019.46,489.16z M1046.5,567.81
					c-3.67,11.84-8.73,22.76-14.89,32.93c-0.44,0.72-0.87,1.45-1.32,2.17c-0.04,0.06-0.12,0.08-0.27,0.18
					c-2.14-22.57-4.27-45.08-6.42-67.88c1.34,1.96,2.55,3.77,3.8,5.53c5.48,7.78,11.43,15,17.9,21.62
					C1047.49,564.63,1047.49,564.6,1046.5,567.81z M1051.81,541.45c-0.44,4.31-1.06,8.56-1.85,12.78c-0.22,1.17-0.37,1.26-1.14,0.46
					c-4.14-4.3-8.03-8.9-11.74-13.72c-5.06-6.59-9.63-13.63-13.83-21.01c-0.7-1.23-0.89-2.3-0.53-3.72
					c2.56-10.3,3.96-20.88,4.36-31.69c0.01-0.38,0.06-0.76,0.12-1.51c2.32,4.11,4.63,7.8,7.03,11.41
					c5.08,7.61,10.6,14.73,16.61,21.3c0.89,0.97,1.31,1.98,1.38,3.37C1052.61,526.6,1052.57,534.04,1051.81,541.45z M1082.39,583.21
					c-7.38-5.2-14.56-10.77-21.46-16.85c-1.42-1.25-2.79-2.59-4.22-3.83c-0.61-0.53-0.73-1.08-0.54-1.89
					c0.88-3.7,1.56-7.47,2.11-11.28c0.98-6.82,1.54-13.7,1.51-20.66c0-0.12,0.03-0.23,0.08-0.61
					c11.59,22.52,24.11,44.02,37.36,64.97C1092.18,589.95,1087.26,586.65,1082.39,583.21z"/>
			</g>
			<g>
				<path class="st3" d="M1062.92,815.19c-1.9,0-3.83-0.55-5.52-1.71c-4.47-3.05-5.63-9.16-2.58-13.63
					c39.03-57.24,102.78-176.75,91.15-334.1c-8.61-116.42-55.02-204.99-92.44-258.79c-3.09-4.45-2-10.56,2.45-13.65
					c4.44-3.09,10.56-2,13.65,2.45c38.82,55.81,86.96,147.7,95.9,268.55c12.07,163.3-54.03,287.25-94.5,346.6
					C1069.14,813.7,1066.06,815.19,1062.92,815.19z"/>
			</g>
			<g>
				<path class="st3" d="M294.33,474.95c-0.03,0-0.06,0-0.08,0l-171.3-1.72c-0.82-0.01-1.63-0.14-2.41-0.38
					c-15.73-4.89-27.65-18.56-31.09-35.67c-0.46-2.29-4.13-22.83,8.53-39.78c8.54-11.43,21.66-17.45,35.27-16.98
					c-1.25-7.1-1.68-15.74,0.17-25.12c4.35-21.97,19.33-39.85,39.1-46.65c21.7-7.46,45.96,0.04,60.38,18.66
					c7.16,9.25,10.54,19.44,12.11,27.71c19.29-4.44,39.62,1.33,54.1,16c26.31,26.66,18.18,65.52,17.16,69.86
					c-2.64,11.34-7.99,22.08-15.47,31.05C299.19,473.84,296.82,474.95,294.33,474.95z M124.43,456.42l165.83,1.67
					c4.56-6.29,7.87-13.49,9.62-21.04c0.32-1.37,7.56-33.64-12.76-54.23c-12.39-12.55-29.97-15.96-45.88-8.91
					c-2.55,1.13-5.49,0.92-7.85-0.55c-2.37-1.47-3.85-4.02-3.96-6.81c-0.25-6.39-1.86-18.65-9.85-28.96
					c-10.01-12.93-26.73-18.18-41.61-13.05c-13.91,4.79-24.93,18.14-28.08,34.01c-2.57,12.99,0.73,24.2,2.93,29.73
					c1.24,3.12,0.5,6.68-1.88,9.06c-2.38,2.37-5.94,3.1-9.06,1.85c-11.18-4.47-23.42-1.16-30.45,8.26
					c-8.44,11.29-5.64,25.79-5.52,26.4C108.07,444.53,115.11,453.07,124.43,456.42z"/>
			</g>
			<g>
				<path class="st3" d="M296.38,331.06c-2.56,0-4.95-1.62-5.82-4.18c-1.08-3.21,0.65-6.69,3.86-7.77l52.61-17.66
					c3.21-1.07,6.69,0.65,7.77,3.86c1.08,3.21-0.65,6.69-3.86,7.77l-52.61,17.66C297.68,330.95,297.02,331.06,296.38,331.06z"/>
			</g>
			<g>
				<path class="st3" d="M375.65,302.74c-2.55-0.22-4.79-2.04-5.43-4.68c-0.79-3.29,1.23-6.61,4.53-7.4l53.95-13.01
					c3.29-0.79,6.61,1.23,7.4,4.53c0.79,3.29-1.23,6.61-4.53,7.4l-53.95,13.01C376.96,302.75,376.3,302.8,375.65,302.74z"/>
			</g>
			<g>
				<path class="st3" d="M455.95,282.76c-2.52-0.44-4.6-2.45-5-5.13c-0.51-3.35,1.8-6.48,5.15-6.98l54.87-8.3
					c3.35-0.5,6.48,1.8,6.98,5.15c0.51,3.35-1.8,6.48-5.15,6.98l-54.87,8.3C457.25,282.88,456.58,282.87,455.95,282.76z"/>
			</g>
			<g>
				<path class="st3" d="M787.3,269.74c-2.36-1.01-3.91-3.44-3.69-6.14c0.28-3.38,3.24-5.89,6.62-5.61l55.31,4.52
					c3.37,0.28,5.89,3.24,5.61,6.62c-0.28,3.38-3.24,5.89-6.62,5.61l-55.31-4.52C788.54,270.16,787.9,269.99,787.3,269.74z"/>
			</g>
			<g>
				<path class="st3" d="M707.66,262.87c-2.36-1.01-3.91-3.44-3.69-6.14c0.28-3.38,3.24-5.89,6.62-5.61l55.31,4.52
					c3.37,0.28,5.89,3.24,5.61,6.62c-0.28,3.38-3.24,5.89-6.62,5.61l-55.31-4.52C708.9,263.29,708.25,263.13,707.66,262.87z"/>
			</g>
			<g>
				<path class="st3" d="M871.82,275.76c-2.29-1.14-3.71-3.66-3.34-6.34c0.47-3.36,3.57-5.7,6.92-5.23l54.97,7.65
					c3.35,0.47,5.7,3.57,5.23,6.92c-0.47,3.36-3.57,5.7-6.92,5.23l-54.97-7.65C873.04,276.25,872.4,276.05,871.82,275.76z"/>
			</g>
			<g>
				<g>
					<path class="st2" d="M692.36,274.44c0.17,42.47-34.53,77.27-77.3,77.19c-42.58-0.07-77.09-34.58-77.09-77.18
						c0-42.86,34.78-77.29,77.29-77.24C657.9,197.25,692.53,231.97,692.36,274.44z M615.14,344.17
						c38.39,0.14,69.54-31.16,69.79-69.23c0.25-38.89-31.35-70.28-69.7-70.31c-38.36-0.03-69.85,31.22-69.83,69.83
						C545.41,313.07,576.93,344.31,615.14,344.17z"/>
					<path class="st2" d="M679.89,274.43c0.23,35.55-29.01,64.77-64.76,64.74c-35.3-0.03-64.71-28.57-64.74-64.72
						c-0.02-35.87,29.1-64.79,64.84-64.78C650.94,209.68,680.11,238.91,679.89,274.43z M611.41,288.46c0,1.28,0,2.57,0,3.85
						c0,2.17,0,4.33,0,6.5c0,0.28,0.11,0.62-0.17,0.8c-0.33,0.21-0.58-0.12-0.83-0.27c-0.61-0.37-1.21-0.74-1.76-1.21
						c-2.87-2.48-4.8-5.54-5.66-9.24c-0.19-0.82-0.57-1-1.31-0.88c-0.84,0.13-1.69,0.22-2.54,0.32c-3.19,0.39-6.39,0.78-9.58,1.15
						c-0.53,0.06-0.65,0.24-0.56,0.76c0.41,2.54,1.07,5.01,2.04,7.4c1.88,4.61,4.76,8.4,9,11.11c3.21,2.05,6.74,3.18,10.47,3.72
						c0.76,0.11,0.92,0.44,0.91,1.11c-0.02,2.62,0.01,5.25-0.02,7.87c-0.01,0.77,0.22,1.07,1.02,1.05c1.88-0.05,3.76-0.05,5.64,0
						c0.8,0.02,1.02-0.27,1.01-1.04c-0.04-2.65,0.01-5.3-0.03-7.95c-0.01-0.76,0.26-1.06,0.99-1.17c2.2-0.34,4.34-0.96,6.4-1.81
						c6.38-2.62,11-7.04,13.46-13.53c1.78-4.7,2.01-9.57,1.06-14.47c-1.09-5.65-4.07-9.99-9.09-12.92c-3.75-2.2-7.79-3.63-11.94-4.8
						c-0.63-0.18-0.89-0.44-0.89-1.11c0.02-6.44,0.01-12.88,0.01-19.33c0-0.95,0.12-1.01,0.97-0.55c2.95,1.58,4.66,4.11,5.47,7.29
						c0.15,0.6,0.34,0.89,1.09,0.78c3.61-0.52,7.23-0.94,10.84-1.41c2.21-0.28,1.91-0.02,1.42-2.05c-1.25-5.14-3.74-9.53-8.14-12.66
						c-3.23-2.29-6.9-3.48-10.79-4.02c-0.65-0.09-0.89-0.32-0.87-0.97c0.03-1.2-0.01-2.39,0.02-3.59c0.01-0.59-0.22-0.81-0.8-0.81
						c-2,0.02-3.99,0.03-5.99,0c-0.69-0.01-0.89,0.28-0.87,0.92c0.03,1.17-0.01,2.34,0.01,3.51c0.01,0.6-0.23,0.88-0.84,0.92
						c-1.03,0.06-2.03,0.27-3.03,0.53c-7.9,2.05-13.26,6.85-15.64,14.73c-1.08,3.58-1.09,7.26-0.45,10.92
						c1,5.75,3.8,10.44,8.49,13.95c3.07,2.3,6.53,3.83,10.18,4.93c1.28,0.39,1.28,0.38,1.28,1.68
						C611.41,281.79,611.41,285.12,611.41,288.46z"/>
					<path class="st2" d="M619.06,290.06c0-3.19,0-6.38,0-9.56c0-1.01,0.06-1.05,1.02-0.74c2.44,0.8,4.73,1.87,6.34,3.98
						c2.95,3.85,2.53,9.79-0.9,13.44c-1.48,1.58-3.26,2.65-5.32,3.27c-1.04,0.31-1.14,0.24-1.14-0.82
						C619.06,296.44,619.06,293.25,619.06,290.06z"/>
					<path class="st2" d="M611.41,252.61c0,2.79,0,5.58,0,8.37c0,1-0.12,1.06-1.02,0.6c-3.05-1.56-5.22-3.84-5.87-7.3
						c-0.78-4.17,1.41-8.46,5.27-10.47c1.62-0.84,1.62-0.84,1.62,0.95C611.41,247.38,611.41,250,611.41,252.61z"/>
				</g>
			</g>
			<g>
				<path class="st3" d="M220.41,206.96c3.09-4.45,2-10.56-2.45-13.65c-4.44-3.09-10.56-2-13.65,2.45
					c-20.07,28.86-42.62,67.39-60.97,114.55c7.6-3.09,15.63-5.46,24-7C183.86,264.22,203.09,231.86,220.41,206.96z"/>
				<path class="st3" d="M107.57,478.28c-7.44,156.39,56.02,274.98,95.34,332.63c1.9,2.79,4.98,4.28,8.11,4.28
					c1.9,0,3.83-0.55,5.52-1.71c4.47-3.05,5.63-9.16,2.58-13.63c-36.77-53.92-95.44-163.11-92.4-307.11
					C119.76,488.56,113.35,483.7,107.57,478.28z"/>
			</g>
			<g>
				<path class="st5" d="M416.61,494.26l0.01,54.2l51.4,0.01v-52.27l10.61-0.03l-0.03-33.77l49.03-0.13v33.93h60.22l2.48,1
					l0.16,51.2l122.23,0.06l0.11-54.02c0.86-2.72,2.77-4.45,4.68-4.37c1.14,0.05,2,0.73,2.45,1.17
					c14.13,20.25,28.26,40.5,42.39,60.75c0.26,0.27,1.99,2.2,1.9,5.26c-0.08,2.53-1.35,4.14-1.66,4.51
					c-0.09,13.03-0.18,26.06-0.26,39.09l110.93-0.31l0.16,20.84c-11.29,15-20.74,28.06-28.02,38.31
					c-30.12,42.4-42.39,63.72-50.35,91.64c-0.19,0.65-0.33,1.18-0.42,1.5c-158.33-0.5-316.65-1-474.98-1.5
					c-5.34-7.89-11.73-19-16.99-33.43c-6.92-18.97-9.12-36.11-9.82-47.82c-1.34-20.74-2.67-41.48-4.01-62.22l3.59-7.32l72.82,0.19
					l-0.08-38.78c-0.45-0.32-1.46-1.14-1.97-2.66c-0.67-2.02-0.19-4.45,1.21-6.26c15.09-20.78,30.19-41.56,45.28-62.35
					c0.54-0.27,1.25-0.5,2.06-0.47C414.73,490.35,416.45,493.93,416.61,494.26z"/>
				<polygon class="st6" points="379.69,548.47 405.86,548.47 405.9,513.98 				"/>
				<polygon class="st6" points="748.73,549.84 722.55,549.85 722.52,514.98 				"/>
				<polygon class="st6" points="723.47,515.42 723.16,548.54 746.96,548.54 				"/>
				<rect x="376.58" y="563.87" class="st6" width="10.71" height="36.74"/>
				<rect x="741.05" y="564" class="st6" width="10.71" height="36.74"/>
				<rect x="490.21" y="475.55" class="st6" width="25.07" height="19.78"/>
				<polygon class="st6" points="465.45,600.81 399.43,600.81 399.43,564.06 432.73,564.06 465.45,564.06 				"/>
				<linearGradient id="SVGID_1_" gradientUnits="userSpaceOnUse" x1="578.8694" y1="556.4395" x2="480.9969" y2="556.4395">
					<stop  offset="0.852" style="stop-color:#FFFFFF"/>
					<stop  offset="0.8617" style="stop-color:#BEC6D2"/>
				</linearGradient>
				<rect x="481" y="511.51" class="st7" width="97.87" height="89.86"/>
				<linearGradient id="SVGID_2_" gradientUnits="userSpaceOnUse" x1="581.2574" y1="616.8615" x2="581.2574" y2="699.4417">
					<stop  offset="0.4097" style="stop-color:#8DE7CC"/>
					<stop  offset="0.4587" style="stop-color:#68B2B1"/>
				</linearGradient>
				<path class="st8" d="M798.05,698.96c-161.14,0.16-322.28,0.32-483.41,0.48c-2.38-12.37-4.53-25.99-6.19-40.73
					c-1.68-14.98-2.61-28.99-3.03-41.85c183.9,0,367.79,0,551.69,0c-11.65,12.66-24.21,27.92-36.73,46.1
					C811.8,675.4,804.41,687.52,798.05,698.96z"/>
				<path class="st9" d="M778.57,745.53c-149.11-0.02-298.22-0.04-447.33-0.06c-2.09-4.58-4.2-9.63-6.23-15.15
					c-2.24-6.1-4.07-11.91-5.57-17.31c157.74,0,315.48,0,473.21,0c-2.94,5.57-5.93,11.8-8.81,18.69
					C781.85,736.48,780.1,741.11,778.57,745.53z"/>
				<ellipse class="st3" cx="335.26" cy="675.23" rx="6.65" ry="8.51"/>
				<ellipse class="st3" cx="361.64" cy="675.48" rx="6.65" ry="8.51"/>
				<ellipse class="st3" cx="386.98" cy="674.73" rx="6.65" ry="8.51"/>
				<ellipse class="st3" cx="413.15" cy="674.98" rx="6.65" ry="8.51"/>
				<ellipse class="st3" cx="491.82" cy="537.51" rx="5.15" ry="6.51"/>
				<ellipse class="st3" cx="508.36" cy="537.51" rx="5.15" ry="6.51"/>
				<ellipse class="st3" cx="543.32" cy="537.51" rx="5.15" ry="6.51"/>
				<ellipse class="st3" cx="560.21" cy="537.51" rx="5.15" ry="6.51"/>
				<ellipse class="st3" cx="525.91" cy="537.51" rx="5.15" ry="6.51"/>
				<ellipse class="st3" cx="492.29" cy="560.42" rx="5.15" ry="6.51"/>
				<ellipse class="st3" cx="508.84" cy="560.42" rx="5.15" ry="6.51"/>
				<ellipse class="st3" cx="543.8" cy="560.42" rx="5.15" ry="6.51"/>
				<ellipse class="st3" cx="560.69" cy="560.42" rx="5.15" ry="6.51"/>
				<ellipse class="st3" cx="526.38" cy="560.42" rx="5.15" ry="6.51"/>
				<ellipse class="st3" cx="492.13" cy="584.27" rx="5.15" ry="6.51"/>
				<ellipse class="st3" cx="508.68" cy="584.27" rx="5.15" ry="6.51"/>
				<ellipse class="st3" cx="543.64" cy="584.27" rx="5.15" ry="6.51"/>
				<ellipse class="st3" cx="560.53" cy="584.27" rx="5.15" ry="6.51"/>
				<ellipse class="st3" cx="526.23" cy="584.27" rx="5.15" ry="6.51"/>
				<path class="st10" d="M465.45,600.81h-66.02v-36.74c10.77,10.1,21.53,20.2,32.3,30.3c11.24-10.1,22.48-20.2,33.72-30.3V600.81z"
					/>
				<polygon class="st6" points="656.13,600.43 591.32,600.43 591.32,563.69 624.01,563.69 656.13,563.69 				"/>
				<path class="st10" d="M656.13,600.43h-64.81v-36.74c10.57,10.1,21.14,20.2,31.71,30.3c11.03-10.1,22.07-20.2,33.1-30.3V600.43z"
					/>
				<polygon class="st6" points="730.02,600.68 670.59,600.68 670.59,563.94 700.57,563.94 730.02,563.94 				"/>
				<path class="st10" d="M730.02,600.68h-59.43v-36.74c9.69,10.1,19.38,20.2,29.07,30.3c10.12-10.1,20.24-20.2,30.35-30.3V600.68z"
					/>
			</g>
		</g>
		<linearGradient id="SVGID_3_" gradientUnits="userSpaceOnUse" x1="254.4712" y1="769.0393" x2="856.0953" y2="769.0393">
			<stop  offset="0" style="stop-color:#8DE7CC;stop-opacity:0"/>
			<stop  offset="0.0626" style="stop-color:#84DBC6;stop-opacity:0.1365"/>
			<stop  offset="0.2042" style="stop-color:#75C4BA;stop-opacity:0.4451"/>
			<stop  offset="0.3389" style="stop-color:#6BB7B3;stop-opacity:0.7389"/>
			<stop  offset="0.4587" style="stop-color:#68B2B1"/>
			<stop  offset="0.9735" style="stop-color:#68B2B1;stop-opacity:0.0489"/>
			<stop  offset="1" style="stop-color:#68B2B1;stop-opacity:0"/>
		</linearGradient>
		<path class="st11" d="M254.47,738.03l1.8,42.55l81.79,21.27l61.12-2.7l62.47-13.48c0,0,62.47,14.38,65.62,14.83
			c3.15,0.45,74.15-0.9,74.15-0.9l48.99-14.38l71.16,15.73c0,0,72.21-2.7,76.1-2.7c3.9,0,57.83-14.68,57.83-14.68l0.6-47.34
			l-47.94,14.83l-43.14,8.09l-80.45-14.83l-37.3-8.09l-48.99,17.3c0,0-25.39,5.39-26.97,5.39c-1.57,0-54.16-1.57-54.6-2.25
			s-27.86-10.34-27.86-10.34l-30.11-8.09l-38.65,5.62l-38.43,14.38l-51.98-6.44l-55.73-13.78H254.47z"/>
		<path class="st3" d="M748.76,762.58c-29.54-0.74-56.48-4.44-80.63-12.59c-10.65-3.59-18.65-4.21-30.22-0.51
			c-53.97,17.29-109.09,17.27-163.58,0.7c-11.99-3.65-20.52-3.45-32.61,0.13c-59.29,17.58-117.57,16.01-173.49-4.81
			c-8.18-3.05-20.34-6.71-11.52-13.17c7.86-5.76,17.06-0.84,24.85,1.98c54.44,19.75,108.76,20.08,162.14-0.9
			c12.14-4.77,20.46-3.64,31.69,0.83c48.97,19.51,108.49,19.81,157.97,0.61c13.02-5.05,22.13-5.58,35.9-0.44
			c53.34,19.93,104.84,19.51,160.29-0.24c7.88-2.81,16.69-7.61,24.55-1.49c7.6,5.91-3.21,9.24-10.68,12.34
			C815.19,756.75,782.7,761.71,748.76,762.58z"/>
		<path class="st3" d="M750.91,808.34c-31.94-0.84-59.83-4.32-84.74-12.74c-10.24-3.46-18.19-3.21-28.49-0.04
			c-55.23,16.96-111.05,17.14-165.8-0.41c-12.25-3.93-20.15-1.88-30.38,1.19c-56.22,16.88-128.05,14.72-173.62-5.19
			c-7.45-3.25-20.49-6.71-10.63-13.26c8.44-5.61,17.13-0.43,24.83,2.4c52.59,19.35,105.54,19.74,158.17,0.34
			c13.19-4.86,22.43-5.13,36.06-0.05c52.01,19.4,106.23,19.29,158.31-0.3c13.87-5.22,23.26-4.45,36.09,0.47
			c49.62,19.02,103.14,19.06,154.03,0.82c1.33-0.48,2.58-1.02,3.93-1.48c7.92-2.64,17.19-7.73,24.96-1.97
			c8.75,6.49-4.17,9.92-11.78,13.23C818.16,801.65,779.55,808.46,750.91,808.34z"/>
	</g>
</g>
</svg>
