<svg width="300" height="43" viewBox="0 0 300 43" fill="none" xmlns="http://www.w3.org/2000/svg">
<path fill-rule="evenodd" clipRule="evenodd" d="M121.146 40.9753C210.444 41.8437 284.636 32.3966 286.858 19.8744C288.286 11.8235 259.617 4.4617 215.229 0C265.719 3.85576 300 11.3828 300 20.037C300 32.6182 227.547 42.8173 138.171 42.8173C79.676 42.8173 28.4294 38.4484 0 31.9022C28.7951 37.0165 72.1548 40.4988 121.146 40.9753Z" fill="#5380EA"/>
<path fill-rule="evenodd" clipRule="evenodd" d="M121.146 40.9753C210.444 41.8437 284.636 32.3966 286.858 19.8744C288.286 11.8235 259.617 4.4617 215.229 0C265.719 3.85576 300 11.3828 300 20.037C300 32.6182 227.547 42.8173 138.171 42.8173C79.676 42.8173 28.4294 38.4484 0 31.9022C28.7951 37.0165 72.1548 40.4988 121.146 40.9753Z" fill="#5380EA"/>
</svg>
